<?xml version="1.0" standalone="no"?>
<!DOCTYPE svg PUBLIC "-//W3C//DTD SVG 20010904//EN"
 "http://www.w3.org/TR/2001/REC-SVG-20010904/DTD/svg10.dtd">
<svg version="1.0" xmlns="http://www.w3.org/2000/svg"
 width="512.000000pt" height="512.000000pt" viewBox="0 0 512.000000 512.000000"
 preserveAspectRatio="xMidYMid meet">

<g transform="translate(0.000000,512.000000) scale(0.100000,-0.100000)"
fill="#fff" stroke="none">
<path d="M2687 4199 c-137 -27 -701 -281 -1145 -518 -455 -242 -997 -561
-1067 -627 -60 -58 -101 -124 -125 -203 -18 -57 -20 -93 -20 -365 0 -333 6
-376 61 -472 53 -94 133 -155 389 -299 129 -72 236 -131 237 -130 1 0 7 107
13 236 5 128 12 266 14 306 l4 72 -32 20 c-50 31 -79 92 -74 153 6 55 28 92
79 126 70 49 81 45 734 -268 325 -156 601 -283 615 -283 27 0 241 104 1332
649 l727 363 5 -52 c2 -29 8 -89 13 -134 l8 -81 -1063 -542 -1064 -543 -56 26
c-31 13 -103 46 -159 73 -57 26 -105 46 -107 43 -2 -2 -7 -39 -11 -82 l-7 -77
148 -71 c82 -39 163 -73 180 -76 33 -5 36 -3 1871 934 l301 154 17 -53 c9 -29
35 -90 57 -136 22 -46 39 -84 37 -86 -2 -2 -274 -140 -604 -306 -330 -166
-825 -416 -1100 -555 -275 -139 -517 -258 -539 -265 -21 -7 -67 -12 -102 -12
-70 1 -127 22 -236 88 -32 20 -61 35 -63 33 -10 -11 -21 -165 -13 -176 18 -23
147 -81 205 -94 79 -16 214 -7 283 20 74 28 2326 1163 2350 1184 39 33 36 63
-13 135 -110 160 -156 322 -173 614 l-7 116 91 46 c93 47 112 65 112 109 0 52
33 33 -735 422 -258 131 -474 241 -480 245 -5 4 -151 78 -322 164 -370 186
-423 202 -566 175z m409 -630 c102 -56 189 -109 194 -119 26 -48 -15 -120 -66
-120 -23 0 -376 188 -403 215 -21 21 -19 80 4 105 35 39 74 28 271 -81z m-246
-194 c267 -146 493 -275 503 -286 9 -12 17 -32 17 -46 0 -29 -50 -83 -77 -83
-27 0 -984 526 -1010 556 -13 14 -23 36 -23 50 0 34 42 74 77 74 18 0 204 -96
513 -265z"/>
<path d="M1207 2208 c-12 -143 -41 -987 -34 -994 3 -4 86 21 183 55 97 34 178
60 179 59 1 -2 50 -81 110 -176 59 -96 111 -170 115 -165 8 10 104 952 99 977
-3 12 -102 63 -322 167 -176 82 -320 149 -322 149 -1 0 -5 -33 -8 -72z"/>
</g>
</svg>
