<?xml version="1.0" encoding="UTF-8"?>
<svg xmlns="http://www.w3.org/2000/svg" xmlns:xlink="http://www.w3.org/1999/xlink" width="64px" height="64px" viewBox="0 0 64 64" version="1.1">
<g id="surface1">
<path style=" stroke:none;fill-rule:nonzero;fill:rgb(89.411765%,25.882354%,20.392157%);fill-opacity:1;" d="M 59.898438 33.011719 C 59.5 32.199219 50.925781 18.074219 50.710938 17.726562 C 49.113281 15.125 46.335938 13.574219 43.300781 13.574219 C 42.863281 13.574219 42.4375 13.613281 42.023438 13.675781 C 41.289062 12.476562 40.011719 11.761719 38.613281 11.761719 C 36.398438 11.761719 34.601562 13.5625 34.601562 15.773438 L 34.601562 22.789062 L 29.425781 22.789062 L 29.425781 15.773438 C 29.425781 13.5625 27.625 11.761719 25.414062 11.761719 C 24.011719 11.761719 22.738281 12.476562 22 13.675781 C 21.585938 13.613281 21.148438 13.574219 20.726562 13.574219 C 17.675781 13.574219 14.914062 15.125 13.3125 17.726562 C 13.289062 17.761719 13.226562 17.875 11.613281 20.574219 C 11.335938 21.039062 11.488281 21.636719 11.949219 21.914062 C 12.414062 22.1875 13.011719 22.039062 13.289062 21.574219 C 14.613281 19.351562 14.9375 18.8125 14.976562 18.75 C 16.210938 16.738281 18.363281 15.539062 20.726562 15.539062 C 24.449219 15.539062 27.476562 18.5625 27.476562 22.289062 L 27.476562 31.9375 C 25.125 28.113281 20.898438 25.550781 16.085938 25.550781 C 13.914062 25.550781 11.863281 26.074219 10.050781 27 C 10.511719 26.210938 11.011719 25.386719 11.5 24.5625 C 11.773438 24.101562 11.625 23.5 11.164062 23.226562 C 10.699219 22.949219 10.101562 23.101562 9.824219 23.5625 C 7.738281 27.050781 4.460938 32.289062 4.050781 33.164062 C 3.210938 34.898438 2.75 36.851562 2.75 38.898438 C 2.75 46.261719 8.738281 52.238281 16.085938 52.238281 C 23.4375 52.238281 29.414062 46.25 29.414062 38.898438 L 29.414062 36.300781 L 34.585938 36.300781 L 34.585938 38.898438 C 34.585938 46.261719 40.574219 52.238281 47.925781 52.238281 C 55.289062 52.238281 61.261719 46.25 61.261719 38.898438 C 61.273438 36.789062 60.789062 34.789062 59.898438 33.011719 Z M 27.449219 16.789062 C 26.550781 15.675781 25.375 14.800781 24.023438 14.238281 C 24.398438 13.898438 24.875 13.710938 25.386719 13.710938 C 26.523438 13.710938 27.4375 14.636719 27.4375 15.761719 Z M 16.0625 50.273438 C 9.789062 50.273438 4.675781 45.175781 4.675781 38.886719 C 4.675781 32.601562 9.773438 27.5 16.0625 27.5 C 22.351562 27.5 27.449219 32.601562 27.449219 38.886719 C 27.449219 45.175781 22.335938 50.273438 16.0625 50.273438 Z M 29.414062 30.574219 L 29.414062 24.75 L 34.585938 24.75 L 34.585938 30.574219 Z M 34.585938 34.335938 L 29.414062 34.335938 L 29.414062 32.539062 L 34.585938 32.539062 Z M 36.550781 15.773438 C 36.550781 14.636719 37.476562 13.726562 38.601562 13.726562 C 39.113281 13.726562 39.601562 13.914062 39.960938 14.25 C 38.625 14.8125 37.449219 15.6875 36.539062 16.800781 L 36.539062 15.773438 Z M 36.550781 22.289062 C 36.550781 18.5625 39.574219 15.539062 43.300781 15.539062 C 45.664062 15.539062 47.8125 16.738281 49.050781 18.75 C 49.164062 18.9375 51.613281 23.050781 53.976562 27 C 52.164062 26.074219 50.113281 25.550781 47.9375 25.550781 C 43.125 25.550781 38.898438 28.113281 36.550781 31.9375 Z M 47.9375 50.273438 C 41.664062 50.273438 36.550781 45.175781 36.550781 38.886719 C 36.550781 32.601562 41.648438 27.5 47.9375 27.5 C 54.210938 27.5 59.324219 32.601562 59.324219 38.886719 C 59.324219 45.175781 54.210938 50.273438 47.9375 50.273438 Z M 47.9375 50.273438 "/>
<path style=" stroke:none;fill-rule:nonzero;fill:rgb(89.411765%,25.882354%,20.392157%);fill-opacity:1;" d="M 56.523438 35.8125 C 56.335938 35.300781 55.773438 35.039062 55.273438 35.226562 C 54.761719 35.414062 54.5 35.976562 54.6875 36.476562 C 54.960938 37.25 55.113281 38.0625 55.113281 38.898438 C 55.113281 42.851562 51.898438 46.0625 47.949219 46.0625 C 44 46.0625 40.789062 42.851562 40.789062 38.898438 C 40.789062 34.949219 44 31.738281 47.949219 31.738281 C 49.9375 31.738281 51.851562 32.574219 53.199219 34.023438 C 53.5625 34.425781 54.1875 34.4375 54.585938 34.074219 C 54.988281 33.710938 55 33.085938 54.636719 32.6875 C 52.914062 30.835938 50.476562 29.773438 47.949219 29.773438 C 42.914062 29.773438 38.824219 33.875 38.824219 38.898438 C 38.824219 43.925781 42.925781 48.023438 47.949219 48.023438 C 52.976562 48.023438 57.074219 43.925781 57.074219 38.898438 C 57.0625 37.835938 56.875 36.800781 56.523438 35.8125 Z M 56.523438 35.8125 "/>
<path style=" stroke:none;fill-rule:nonzero;fill:rgb(89.411765%,25.882354%,20.392157%);fill-opacity:1;" d="M 16.0625 29.773438 C 11.023438 29.773438 6.9375 33.875 6.9375 38.898438 C 6.9375 43.925781 11.039062 48.023438 16.0625 48.023438 C 21.085938 48.023438 25.1875 43.925781 25.1875 38.898438 C 25.1875 33.875 21.101562 29.773438 16.0625 29.773438 Z M 16.0625 46.0625 C 12.113281 46.0625 8.898438 42.851562 8.898438 38.898438 C 8.898438 34.949219 12.113281 31.738281 16.0625 31.738281 C 20.011719 31.738281 23.226562 34.949219 23.226562 38.898438 C 23.226562 42.851562 20.023438 46.0625 16.0625 46.0625 Z M 16.0625 46.0625 "/>
</g>
</svg>
